<svg xmlns="http://www.w3.org/2000/svg" role="img" height="16" width="16" viewBox="0 0 16 16" class="Svg-ulyrgf-0 hJgLcF"><path d="M3.645 6.352a2.442 2.442 0 01-.586-1.587v-.194c0-1.339 1-2.454 2.277-2.536a2.409 2.409 0 011.833.655c.129.121.241.254.34.395.266-.197.55-.368.851-.51a3.345 3.345 0 00-.507-.615 3.42 3.42 0 00-2.581-.923c-1.802.117-3.213 1.669-3.213 3.534v.193c0 .82.293 1.614.825 2.236l.772.904s.07.081-.024.134L1.743 9.125A3.449 3.449 0 000 12.118V13h1v-.882c0-.877.474-1.691 1.24-2.125l1.891-1.088a1.089 1.089 0 00.286-1.649l-.772-.904zm10.614 5.774l-1.892-1.087c-.077-.044-.023-.134-.023-.134l.771-.904a3.446 3.446 0 00.825-2.236v-.294c0-.947-.396-1.862-1.088-2.511a3.419 3.419 0 00-2.581-.923c-1.801.117-3.212 1.67-3.212 3.535v.193c0 .82.293 1.614.825 2.236l.771.904s.059.087-.023.134l-1.889 1.086A3.45 3.45 0 005 15.118V16h1v-.882c0-.877.474-1.691 1.239-2.125l1.892-1.087a1.089 1.089 0 00.286-1.65l-.773-.904a2.447 2.447 0 01-.585-1.587v-.193c0-1.339 1-2.454 2.277-2.537a2.413 2.413 0 011.833.654c.498.467.771 1.1.771 1.781v.294c0 .582-.208 1.145-.586 1.587l-.771.904a1.09 1.09 0 00.285 1.651l1.894 1.088A2.448 2.448 0 0115 15.118V16h1v-.882a3.447 3.447 0 00-1.741-2.992z" fill="#fff"/></svg>